<svg width="163" height="163" viewBox="0 0 163 163" fill="none" xmlns="http://www.w3.org/2000/svg">
<path d="M135.833 27.1665H27.1666C19.6958 27.1665 13.6512 33.279 13.6512 40.7498L13.5833 122.25C13.5833 129.721 19.6958 135.833 27.1666 135.833H135.833C143.304 135.833 149.417 129.721 149.417 122.25V40.7498C149.417 33.279 143.304 27.1665 135.833 27.1665ZM133.117 56.0311L85.0996 86.0502C82.9262 87.4086 80.0737 87.4086 77.9004 86.0502L29.8833 56.0311C29.2023 55.6488 28.6059 55.1323 28.1303 54.5128C27.6547 53.8934 27.3097 53.1839 27.1162 52.4272C26.9227 51.6706 26.8848 50.8826 27.0047 50.1108C27.1246 49.3391 27.3998 48.5997 27.8138 47.9375C28.2277 47.2752 28.7717 46.7038 29.4128 46.2578C30.054 45.8119 30.7789 45.5007 31.5438 45.343C32.3088 45.1854 33.0977 45.1846 33.8629 45.3407C34.6282 45.4967 35.3538 45.8065 35.9958 46.2511L81.5 74.7082L127.004 46.2511C127.646 45.8065 128.372 45.4967 129.137 45.3407C129.902 45.1846 130.691 45.1854 131.456 45.343C132.221 45.5007 132.946 45.8119 133.587 46.2578C134.228 46.7038 134.772 47.2752 135.186 47.9375C135.6 48.5997 135.875 49.3391 135.995 50.1108C136.115 50.8826 136.077 51.6706 135.884 52.4272C135.69 53.1839 135.345 53.8934 134.87 54.5128C134.394 55.1323 133.798 55.6488 133.117 56.0311V56.0311Z" fill="white"/>
</svg>
